<?xml version="1.0" encoding="UTF-8"?>
<svg width="32px" height="31px" viewBox="0 0 32 31" version="1.1" xmlns="http://www.w3.org/2000/svg" xmlns:xlink="http://www.w3.org/1999/xlink">
    <title>icons/hot_reloading</title>
    <g id="Symbols" stroke="none" stroke-width="1" fill="none" fill-rule="evenodd">
        <g id="icons/hot_reloading" fill-rule="nonzero">
            <g transform="translate(0.000000, 2.000000)" id="Group">
                <g>
                    <path d="M1.0272138,17.3419355 L8.59710627,19.2688172 L27.8659235,-6.21724894e-15 L0.614310572,14.8645161 C0.162806717,15.164735 -0.0703644518,15.7020621 0.0187736264,16.2368906 C0.107911705,16.771719 0.502747281,17.2043784 1.0272138,17.3419355 Z" id="Path" fill="#B1A0BD"></path>
                    <path d="M15.4788267,21.6086022 L26.0766762,25.4623656 C26.4825628,25.5906808 26.9249825,25.5239625 27.2749784,25.2816576 C27.6249743,25.0393527 27.8431544,24.6487328 27.8659235,24.2236559 L27.8659235,6.21724894e-15 L15.4788267,21.6086022 Z" id="Path" fill="#B1A0BD"></path>
                    <path d="M8.59710627,19.2688172 L10.3863536,25.7376344 C10.503503,26.3294587 10.9924257,26.7760023 11.5924183,26.8391594 C12.1924109,26.9023165 12.7635964,26.5673632 13.0014073,26.0129032 L15.4788267,21.6086022 L27.8659235,4.6629367e-14 L8.59710627,19.2688172 Z" id="Path" fill="#3B1159"></path>
                </g>
            </g>
        </g>
    </g>
</svg>