<?xml version="1.0" encoding="UTF-8"?>
<svg width="31px" height="32px" viewBox="0 0 31 32" version="1.1" xmlns="http://www.w3.org/2000/svg" xmlns:xlink="http://www.w3.org/1999/xlink">
    <!-- Generator: Sketch 52.4 (67378) - http://www.bohemiancoding.com/sketch -->
    <title>world_wide_coverage</title>
    <desc>Created with Sketch.</desc>
    <defs>
        <polygon id="path-1" points="0.25 0.849976 30.9867 0.849976 30.9867 31.5874 0.25 31.5874"></polygon>
    </defs>
    <g id="Page-1" stroke="none" stroke-width="1" fill="none" fill-rule="evenodd">
        <g id="world_wide_coverage">
            <path d="M11.7704,3.98389 C11.768,4.64569 11.768,5.30749 11.7704,5.96869 C12.6284,5.97109 13.487,5.97349 14.3456,5.96689 C14.3456,5.13289 14.3474,4.29649 14.3456,3.46069 C13.469,3.54769 12.6104,3.72889 11.7704,3.98389" id="Path" fill="#FDFDFD"></path>
            <g id="Clipped">
                <mask id="mask-2" fill="white">
                    <use xlink:href="#path-1"></use>
                </mask>
                <g id="Path"></g>
                <path d="M24.594,13.6626 C23.7336,13.2534 22.902,12.7818 22.0278,12.4038 C21.1788,12.3396 20.3244,12.402 19.473,12.3792 C18.6144,13.2288 17.7672,14.0874 16.9092,14.937 C16.9068,15.7908 16.9068,16.6446 16.9092,17.4966 C17.7654,18.3498 18.6168,19.2084 19.4754,20.0604 C20.3292,20.058 21.1806,20.0604 22.032,20.0604 C22.4616,20.9118 22.884,21.768 23.3154,22.62 C22.428,24.4278 21.507,26.2212 20.622,28.0314 C18.6102,28.8804 16.3794,29.2092 14.211,28.9566 C13.386,28.134 12.5502,27.327 11.7186,26.5116 C11.7342,24.7926 11.7498,23.0736 11.7678,21.3522 C10.4958,20.067 9.20822,18.7926 7.93202,17.5098 C6.64682,17.5074 5.36162,17.5098 4.07642,17.5074 C4.07642,16.6512 4.07642,15.7974 4.07402,14.9412 C6.21302,13.6536 8.35862,12.3774 10.494,11.0856 C10.4892,10.2294 10.4916,9.37498 10.4916,8.51938 C11.3454,8.52178 12.1968,8.52178 13.0512,8.51938 C13.4844,8.94418 13.9158,9.37318 14.3448,9.80638 C15.1926,9.37978 16.0398,8.95258 16.8912,8.53018 C16.8954,6.84058 16.8888,5.15038 16.8936,3.46258 C19.044,3.67318 21.1314,4.44178 22.9086,5.66938 C22.6182,5.77198 22.3254,5.87278 22.0344,5.97358 L22.0344,7.25158 L20.7564,7.25158 C20.3292,7.67638 19.902,8.10118 19.4754,8.52838 C19.4664,9.37978 19.473,10.2312 19.4664,11.0832 C20.3226,10.6584 21.1764,10.2336 22.0302,9.80458 C23.313,10.236 24.6006,10.6536 25.8816,11.0946 C25.4502,11.9484 25.023,12.8064 24.594,13.6626 M29.943,10.6452 C28.7112,7.47298 26.3892,4.74598 23.4678,3.00718 C20.8164,1.41118 17.6712,0.673185 14.5866,0.885585 C10.7484,1.12018 7.04462,2.89318 4.42502,5.70058 C1.91882,8.34478 0.401416,11.9034 0.267016,15.5472 C0.106216,18.8934 1.08962,22.2774 3.02342,25.0158 C5.02622,27.8862 8.03042,30.0456 11.4012,31.0002 C14.8836,31.9968 18.7194,31.722 22.0098,30.1974 C25.3338,28.677 28.0788,25.9344 29.5968,22.6086 C31.3224,18.8868 31.4454,14.4606 29.943,10.6452" id="Shape" fill="#3B1159" mask="url(#mask-2)"></path>
            </g>
            <path d="M24.5942,13.6626 C23.7338,13.2534 22.9022,12.7818 22.028,12.4038 C21.179,12.3396 20.3246,12.402 19.4732,12.3792 C18.6146,13.2288 17.7674,14.0874 16.9094,14.937 C16.907,15.7908 16.907,16.6446 16.9094,17.4966 C17.7656,18.3498 18.617,19.2084 19.4756,20.0604 C20.3294,20.058 21.1808,20.0604 22.0322,20.0604 C22.4618,20.9118 22.8842,21.768 23.3156,22.62 C22.4282,24.4278 21.5072,26.2212 20.6222,28.0314 C18.6104,28.8804 16.3796,29.2092 14.2112,28.9566 C13.3862,28.134 12.5504,27.327 11.7188,26.5116 C11.7344,24.7926 11.75,23.0736 11.768,21.3522 C10.496,20.067 9.20842,18.7926 7.93222,17.5098 C6.64702,17.5074 5.36182,17.5098 4.07662,17.5074 C4.07662,16.6512 4.07662,15.7974 4.07422,14.9412 C6.21322,13.6536 8.35882,12.3774 10.4942,11.0856 C10.4894,10.2294 10.4918,9.37505 10.4918,8.51945 C11.3456,8.52185 12.197,8.52185 13.0514,8.51945 C13.4846,8.94425 13.916,9.37325 14.345,9.80645 C15.1928,9.37985 16.04,8.95265 16.8914,8.53025 C16.8956,6.84065 16.889,5.15045 16.8938,3.46265 C19.0442,3.67325 21.1316,4.44185 22.9088,5.66945 C22.6184,5.77205 22.3256,5.87285 22.0346,5.97365 L22.0346,7.25165 L20.7566,7.25165 C20.3294,7.67645 19.9022,8.10125 19.4756,8.52845 C19.4666,9.37985 19.4732,10.2312 19.4666,11.0832 C20.3228,10.6584 21.1766,10.2336 22.0304,9.80465 C23.3132,10.236 24.6008,10.6536 25.8818,11.0946 C25.4504,11.9484 25.0232,12.8064 24.5942,13.6626" id="Path" fill="#FDFDFD" opacity="0.6"></path>
        </g>
    </g>
</svg>