<?xml version="1.0" encoding="UTF-8"?>
<svg width="35px" height="35px" viewBox="0 0 35 35" version="1.1" xmlns="http://www.w3.org/2000/svg" xmlns:xlink="http://www.w3.org/1999/xlink">
    <!-- Generator: Sketch 52.4 (67378) - http://www.bohemiancoding.com/sketch -->
    <title>creative_touch</title>
    <desc>Created with Sketch.</desc>
    <g id="Page-1" stroke="none" stroke-width="1" fill="none" fill-rule="evenodd">
        <g id="creative_touch">
            <path d="M10.6475,28.1536 C8.6903,29.2367 6.55617,29.9654 4.4273,30.6347 C5.03262,28.739 5.71775,26.8637 6.56772,25.0655 C6.92,24.393 7.23867,23.6181 7.94165,23.2401 C9.52662,22.3382 11.8298,23.4176 12.1448,25.2146 C12.3695,26.3838 11.7006,27.6239 10.6475,28.1536 M13.2137,21.5659 C11.0003,19.3493 7.47335,20.3684 7.27437,20.4282 C6.85752,20.5757 6.45905,20.7737 6.09995,21.0398 C4.9691,21.8263 4.3118,23.0789 3.7763,24.3111 C2.6213,26.9571 1.6721,29.6908 0.827373,32.4507 C0.429423,33.4981 1.64585,34.6205 2.6654,34.1906 C5.79125,33.2424 8.93285,32.2549 11.8503,30.7665 C13.6179,29.8924 14.8144,28.0743 14.9719,26.115 C14.9908,26.1129 15.0102,26.1092 15.0291,26.1077 C15.163,24.603 14.6454,22.9997 13.2137,21.5659" id="Shape" fill="#3B1159"></path>
            <path d="M19.3603,12.9404 C20.278,13.8565 21.1941,14.7742 22.1097,15.6898 C21.3731,16.5482 20.6444,17.4123 19.9058,18.2702 C18.8526,17.2407 17.8189,16.1917 16.7778,15.1501 C17.6341,14.4078 18.4961,13.6749 19.3603,12.9404 M33.5899,2.6866 C33.3531,1.645 32.3157,1.04388 31.3361,0.850678 C30.2294,0.616003 29.0423,0.936253 28.1882,1.67493 C23.7666,5.42815 19.364,9.2092 14.944,12.9682 C14.7077,13.1614 14.5256,13.3982 14.3759,13.6544 L14.3707,13.6518 C14.3707,13.6518 11.816,17.0217 14.441,19.6467 C16.478,21.6837 19.1235,22.214 21.3201,20.7267 C21.5931,20.5791 21.8409,20.3886 22.0472,20.1471 C22.4074,19.809 22.7518,19.4126 23.0726,18.9464 C26.5302,14.8803 29.9989,10.822 33.4487,6.74853 C34.4262,5.59563 34.2372,3.94713 33.5899,2.6866" id="Shape" fill="#AE9CBB"></path>
        </g>
    </g>
</svg>