<?xml version="1.0" encoding="UTF-8"?>
<svg width="39px" height="37px" viewBox="0 0 39 37" version="1.1" xmlns="http://www.w3.org/2000/svg" xmlns:xlink="http://www.w3.org/1999/xlink">
    <!-- Generator: Sketch 52.4 (67378) - http://www.bohemiancoding.com/sketch -->
    <title>tailored_solutions</title>
    <desc>Created with Sketch.</desc>
    <defs>
        <polygon id="path-1" points="0.6553 0.4537 18.0779 0.4537 18.0779 16.5195 0.6553 16.5195"></polygon>
    </defs>
    <g id="Page-1" stroke="none" stroke-width="1" fill="none" fill-rule="evenodd">
        <g id="tailored_solutions">
            <path d="M28.8739,5.55902 C26.1422,6.79562 27.0798,11.5476 30.1585,11.3782 C32.7613,12.0161 35.0158,8.39605 33.0603,6.4399 C32.1949,5.00957 30.2557,5.1547 28.8739,5.55902 M24.13,4.1611 C26.8375,-0.623302 34.8058,-0.299977 37.1494,4.66195 C39.3479,8.54927 37.3837,14.0127 33.1082,15.443 C24.0004,18.5622 14.8279,21.4958 5.70388,24.5832 C4.13653,25.1644 2.4875,25.5039 0.831055,25.7145 C1.41223,23.7908 3.41698,23.1205 4.98433,22.1991 C11.224,19.0145 17.3092,15.5402 23.5644,12.3799 C22.8691,9.67247 22.4007,6.5938 24.13,4.1611" id="Shape" fill="#3B1159"></path>
            <path d="M0.75,11.7498 C5.11387,12.0805 9.21922,13.7457 13.2679,15.2895 C11.7653,15.8875 10.3107,17.4069 8.58878,16.8001 C5.62283,15.7903 2.79457,14.1656 0.75,11.7498" id="Path" fill="#AE9CBB"></path>
            <g id="Clipped" transform="translate(20.000000, 20.000000)">
                <mask id="mask-2" fill="white">
                    <use xlink:href="#path-1"></use>
                </mask>
                <g id="Path"></g>
                <path d="M10.2403,5.7633 C7.9527,5.876 6.3691,8.8258 7.84,10.7009 C8.9713,12.5761 11.8643,12.5437 13.0847,10.7657 C14.9761,8.8015 12.6885,5.496 10.2403,5.7633 M0.6553,3.0478 C3.1528,1.9408 5.6658,0.526 8.4623,0.4537 C12.2038,0.9546 16.592,2.6839 17.7078,6.684 C19.267,11.1457 15.6956,16.6166 10.8545,16.4877 C7.3391,16.8427 3.8473,14.2082 3.2007,10.7569 C3.0313,8.8825 2.9989,6.9992 3.1933,5.1322 C2.3205,4.4619 1.4956,3.743 0.6553,3.0478" id="Shape" fill="#AE9CBB" mask="url(#mask-2)"></path>
            </g>
        </g>
    </g>
</svg>