<?xml version="1.0" encoding="UTF-8"?>
<svg width="36px" height="32px" viewBox="0 0 36 32" version="1.1" xmlns="http://www.w3.org/2000/svg" xmlns:xlink="http://www.w3.org/1999/xlink">
    <!-- Generator: Sketch 52.4 (67378) - http://www.bohemiancoding.com/sketch -->
    <title>strategy_definition</title>
    <desc>Created with Sketch.</desc>
    <defs>
        <polygon id="path-1" points="0 0.5 35.8216 0.5 35.8216 31.1 0 31.1"></polygon>
    </defs>
    <g id="Page-1" stroke="none" stroke-width="1" fill="none" fill-rule="evenodd">
        <g id="strategy_definition">
            <mask id="mask-2" fill="white">
                <use xlink:href="#path-1"></use>
            </mask>
            <g id="Path"></g>
            <path d="M27.4968,28.4 C24.3904,28.4 21.8718,25.8813 21.8718,22.775 C21.8718,19.6686 24.3904,17.15 27.4968,17.15 C30.6031,17.15 33.1218,19.6686 33.1218,22.775 C33.1218,25.8813 30.6031,28.4 27.4968,28.4 M8.325,28.4 C5.2182,28.4 2.7,25.8813 2.7,22.775 C2.7,19.6686 5.2182,17.15 8.325,17.15 C11.4313,17.15 13.95,19.6686 13.95,22.775 C13.95,25.8813 11.4313,28.4 8.325,28.4 M35.424,20.2352 L35.4267,20.2343 L30.7296,4.86275 L30.7246,4.8632 C30.1513,2.36525 27.9189,0.5 25.2468,0.5 C22.1404,0.5 19.6218,3.01865 19.6218,6.125 C19.6218,6.20015 19.6304,6.27395 19.6331,6.34865 L19.6218,6.35 L19.6074,6.9494 C19.2056,7.33145 18.6232,7.5776 17.9667,7.5776 C17.2453,7.5776 16.6113,7.2824 16.2117,6.8333 L16.2,6.35 L16.1883,6.34865 C16.1914,6.27395 16.2,6.20015 16.2,6.125 C16.2,3.01865 13.6813,0.5 10.575,0.5 C7.90245,0.5 5.67045,2.36525 5.09715,4.8632 L5.0922,4.86275 L0.3942,20.2343 L0.39735,20.2352 C0.1413,21.0362 0,21.8885 0,22.775 C0,27.3726 3.72735,31.1 8.325,31.1 C12.6175,31.1 16.1384,27.8469 16.5884,23.6745 C16.9218,23.3901 17.3853,23.2129 17.8997,23.2129 C18.4289,23.2129 18.9013,23.4018 19.237,23.7006 C19.6987,27.8609 23.2132,31.1 27.4968,31.1 C32.0949,31.1 35.8218,27.3726 35.8218,22.775 C35.8218,21.8885 35.6809,21.0362 35.424,20.2352" id="Shape" fill="#3B1159" mask="url(#mask-2)"></path>
        </g>
    </g>
</svg>