<?xml version="1.0" encoding="UTF-8"?>
<svg width="32px" height="32px" viewBox="0 0 32 32" version="1.1" xmlns="http://www.w3.org/2000/svg" xmlns:xlink="http://www.w3.org/1999/xlink">
    <title>icons/budget</title>
    <g id="Symbols" stroke="none" stroke-width="1" fill="none" fill-rule="evenodd">
        <g id="icons/budget" fill-rule="nonzero">
            <g id="Path">
                <path d="M30.4104679,16.6381379 C30.2497006,16.2277909 30.2497006,15.7722091 30.4104679,15.3618621 L31.8515146,12.1711724 C32.1999719,11.4659402 31.9144977,10.6126297 31.2110494,10.2567586 L28.0087232,8.34234474 C27.6226705,8.14459331 27.3337446,7.79914211 27.2081417,7.38513783 L26.4075601,4.03491365 C26.2530901,3.28011897 25.5793757,2.74310597 24.806397,2.75863777 L20.9636056,3.07770674 C20.5595129,3.18851258 20.1271366,3.06542541 19.8427914,2.75863777 L16.9606979,0.365620505 C16.4136752,-0.121873502 15.5863248,-0.121873502 15.0393021,0.365620505 L12.1572086,2.75863777 C11.8728634,3.06542541 11.4404871,3.18851258 11.0363944,3.07770674 L7.19360297,2.75863777 C6.42062426,2.74310597 5.74690989,3.28011897 5.59243988,4.03491365 L4.79185833,7.38513783 C4.66625542,7.79914211 4.37732953,8.14459331 3.99127678,8.34234474 L0.788950593,10.2567586 C0.0855023085,10.6126297 -0.199971875,11.4659402 0.148485355,12.1711724 L1.58953214,15.3618621 C1.75029943,15.7722091 1.75029943,16.2277909 1.58953214,16.6381379 L0.148485355,19.8288276 C-0.199971875,20.5340598 0.0855023085,21.3873703 0.788950593,21.7432414 L3.99127678,23.6576553 C4.37732953,23.8554067 4.66625542,24.2008579 4.79185833,24.6148622 L5.59243988,27.9650863 C5.74690989,28.719881 6.42062426,29.256894 7.19360297,29.2413622 L11.0363944,28.9222933 C11.4404871,28.8114874 11.8728634,28.9345746 12.1572086,29.2413622 L15.0393021,31.6343795 C15.5863248,32.1218735 16.4136752,32.1218735 16.9606979,31.6343795 L19.8427914,29.2413622 C20.1271366,28.9345746 20.5595129,28.8114874 20.9636056,28.9222933 L24.806397,29.2413622 C25.5793757,29.256894 26.2530901,28.719881 26.4075601,27.9650863 L27.2081417,24.6148622 C27.3337446,24.2008579 27.6226705,23.8554067 28.0087232,23.6576553 L31.2110494,21.7432414 C31.9144977,21.3873703 32.1999719,20.5340598 31.8515146,19.8288276 L30.4104679,16.6381379 Z" fill="#3B1159"></path>
                <path d="M17.5,14.5 L14.5,14.5 C13.6715729,14.5 13,13.8284271 13,13 C13,12.1715729 13.6715729,11.5 14.5,11.5 L20.5,11.5 C21.3284271,11.5 22,10.8284271 22,10 C22,9.17157288 21.3284271,8.5 20.5,8.5 L17.5,8.5 C17.5,7.67157288 16.8284271,7 16,7 C15.1715729,7 14.5,7.67157288 14.5,8.5 C12.0147186,8.5 10,10.5147186 10,13 C10,15.4852814 12.0147186,17.5 14.5,17.5 L17.5,17.5 C18.3284271,17.5 19,18.1715729 19,19 C19,19.8284271 18.3284271,20.5 17.5,20.5 L11.5,20.5 C10.6715729,20.5 10,21.1715729 10,22 C10,22.8284271 10.6715729,23.5 11.5,23.5 L14.5,23.5 C14.5,24.3284271 15.1715729,25 16,25 C16.8284271,25 17.5,24.3284271 17.5,23.5 C19.9852814,23.5 22,21.4852814 22,19 C22,16.5147186 19.9852814,14.5 17.5,14.5 Z" fill="#B1A0BD"></path>
            </g>
        </g>
    </g>
</svg>