<?xml version="1.0" encoding="UTF-8"?>
<svg width="32px" height="26px" viewBox="0 0 32 26" version="1.1" xmlns="http://www.w3.org/2000/svg" xmlns:xlink="http://www.w3.org/1999/xlink">
    <!-- Generator: Sketch 52.4 (67378) - http://www.bohemiancoding.com/sketch -->
    <title>icon/latest_tech</title>
    <desc>Created with Sketch.</desc>
    <defs>
        <path d="M7.39564791,14.5458648 L0.191067545,7.79142978 C-0.0636891818,7.55621191 -0.0636891818,7.15153198 0.191067545,6.91668986 L7.39564791,0.167139587 C7.6406352,-0.0631935605 8.02051581,-0.0477879177 8.24558849,0.192314661 L10.4204144,2.51180327 C10.6556322,2.75679056 10.6357176,3.14681635 10.3805851,3.37188903 L5.85095041,7.3563143 L10.3805851,11.3414911 C10.6357176,11.566188 10.6503718,11.9562138 10.4204144,12.2015768 L8.24558849,14.5210654 C8.02051581,14.7660527 7.6406352,14.7761979 7.39564791,14.5458648 Z M23.7544115,14.5209151 L21.5795856,12.2014265 C21.3443678,11.9564392 21.3646581,11.5664135 21.6194149,11.3413408 L26.1494253,7.35653975 L21.6194149,3.36685402 C21.3646581,3.14215708 21.3496282,2.7521313 21.5795856,2.50676825 L23.7544115,0.187279646 C23.9843689,-0.0528229327 24.3642495,-0.0629681121 24.6043521,0.162104572 L31.8089325,6.92142428 C32.0636892,7.1562664 32.0636892,7.56169783 31.8089325,7.79653994 L24.6043521,14.5509749 C24.3593648,14.7764234 23.9794842,14.7659024 23.7544115,14.5209151 Z" id="path-1"></path>
        <path d="M0.44679162,24.5147554 C0.116946659,24.4270436 -0.0690998525,24.099684 0.0239234033,23.7873713 L7.06384588,0.826696658 C7.15648154,0.514016925 7.50221798,0.338226324 7.83206294,0.425938127 L10.978187,1.29057833 C11.3080319,1.37829013 11.4936908,1.70564966 11.4010552,2.0179624 L4.36113271,24.978637 C4.26345829,25.2913168 3.92276061,25.4718783 3.59291565,25.3790286 L0.44679162,24.5147554 Z" id="path-3"></path>
    </defs>
    <g id="ðŸ–¥ï¸-web" stroke="none" stroke-width="1" fill="none" fill-rule="evenodd">
        <g id="landing" transform="translate(-264.000000, -4315.000000)">
            <g id="services" transform="translate(250.000000, 3806.000000)">
                <g id="3" transform="translate(0.000000, 492.000000)">
                    <g id="icons/latest_tech" transform="translate(14.000000, 17.000000)">
                        <g id="icon/latest_tech">
                            <g>
                                <g id="1" transform="translate(0.000000, 5.000000)">
                                    <mask id="mask-2" fill="white">
                                        <use xlink:href="#path-1"></use>
                                    </mask>
                                    <use id="Combined-Shape" fill="#3B1159" xlink:href="#path-1"></use>
                                    <rect id="Rectangle" fill="#3B1159" mask="url(#mask-2)" x="0" y="-9" width="32" height="32"></rect>
                                </g>
                                <g id="2" transform="translate(10.000000, 0.000000)">
                                    <mask id="mask-4" fill="white">
                                        <use xlink:href="#path-3"></use>
                                    </mask>
                                    <use id="Fill-4" fill-opacity="0.4" fill="#3B1159" xlink:href="#path-3"></use>
                                    <rect id="Rectangle" fill="#B1A0BD" mask="url(#mask-4)" x="-10" y="-4" width="32" height="32"></rect>
                                </g>
                            </g>
                        </g>
                    </g>
                </g>
            </g>
        </g>
    </g>
</svg>