<?xml version="1.0" encoding="UTF-8"?>
<svg width="40px" height="37px" viewBox="0 0 40 37" version="1.1" xmlns="http://www.w3.org/2000/svg" xmlns:xlink="http://www.w3.org/1999/xlink">
    <!-- Generator: Sketch 52.4 (67378) - http://www.bohemiancoding.com/sketch -->
    <title>end_to_end_dev</title>
    <desc>Created with Sketch.</desc>
    <g id="Page-1" stroke="none" stroke-width="1" fill="none" fill-rule="evenodd">
        <g id="end_to_end_dev">
            <path d="M18.1762,8.83891 C17.7496,9.71275 17.8276,10.8084 18.3675,11.617 C19.2822,13.1131 21.6136,13.3306 22.7836,12.0229 C24.0146,10.8358 23.7672,8.57992 22.3102,7.68597 C20.9482,6.73047 18.8355,7.30024 18.1762,8.83891 M13.0355,4.55988 C13.6467,3.77317 14.3292,3.01694 15.1354,2.43011 C15.7953,2.59403 16.2274,3.23144 16.7673,3.62266 C18.0366,2.87556 19.493,2.488 20.9665,2.5008 C21.2517,1.88777 21.2925,1.09436 21.8202,0.637939 C22.7343,0.770174 23.6386,1.02916 24.5051,1.35152 C24.7562,2.00538 24.382,2.72627 24.3296,3.39719 C25.6057,4.12905 26.6678,5.18753 27.3978,6.46539 C28.0535,6.3685 28.7135,6.14486 29.3826,6.21799 C29.7884,7.05588 29.9743,7.99127 30.1534,8.90046 C29.8164,9.53603 28.9018,9.51166 28.307,9.82975 C28.3015,11.3038 27.914,12.7572 27.1766,14.0387 C27.5416,14.6048 28.3478,15.032 28.3332,15.762 C27.7683,16.4268 27.1431,17.0417 26.4911,17.6157 C25.7495,17.7236 25.3016,16.8449 24.7166,16.4908 C23.4448,17.2306 21.9957,17.6103 20.5253,17.6115 C20.287,18.2379 20.1225,18.9015 19.7502,19.464 C18.7739,19.3409 17.7794,19.1099 16.8928,18.6779 C16.8629,18.0149 17.0488,17.3695 17.1548,16.72 C15.8861,15.9765 14.8203,14.918 14.083,13.6438 C13.4127,13.7145 12.7265,14.0198 12.0556,13.8486 C11.7466,12.9394 11.3646,11.9875 11.3682,11.0223 C11.9179,10.6628 12.5681,10.5123 13.1775,10.2789 C13.1884,8.81088 13.5534,7.35813 14.3078,6.09306 C13.8855,5.58058 13.459,5.07175 13.0355,4.55988" id="Shape" fill="#3B1159"></path>
            <path d="M7.39032,25.3461 C6.67117,26.5776 7.07218,28.3156 8.27036,29.087 C9.40746,29.8902 11.1107,29.6647 11.9925,28.5745 C12.9802,27.4679 12.8581,25.5935 11.7343,24.6288 C10.4853,23.4009 8.1869,23.7794 7.39032,25.3461 M3.46431,22.7507 C3.09778,22.1877 2.29758,21.7611 2.31754,21.0329 C2.94839,20.3492 3.55323,19.5759 4.35222,19.0951 C4.94012,19.3864 5.38891,19.8873 5.89939,20.2931 C7.16653,19.5576 8.60907,19.1658 10.0716,19.1719 C10.2935,18.5308 10.5228,17.894 10.7986,17.2737 C11.7131,17.4687 12.6361,17.6649 13.5143,18.0019 C13.9214,18.5832 13.4315,19.3974 13.4054,20.064 C14.672,20.8081 15.7244,21.8714 16.4641,23.1462 C17.1282,23.1219 17.9393,22.6277 18.5169,23.0378 C18.8163,23.9171 19.1067,24.8208 19.1938,25.7501 C18.6258,26.106 17.9708,26.2705 17.352,26.5027 C17.3556,27.978 16.971,29.4313 16.2403,30.7116 C16.6395,31.2253 17.1446,31.675 17.4276,32.2686 C16.9546,33.0778 16.181,33.6854 15.506,34.3203 C14.7833,34.3331 14.3593,33.5306 13.7998,33.1631 C12.5345,33.9047 11.0883,34.2923 9.62762,34.2923 C9.38387,34.9145 9.25625,35.6019 8.85464,36.1479 C7.93347,36.0437 7.03105,35.7682 6.1625,35.455 C5.7996,34.8548 6.2623,34.0577 6.29012,33.3849 C5.0254,32.6586 3.96754,31.5964 3.24597,30.3222 C2.57702,30.3484 1.7871,30.8158 1.19012,30.449 C0.881048,29.5715 0.609476,28.6641 0.5,27.7342 C1.04556,27.3381 1.72419,27.2016 2.34355,26.9609 C2.34536,25.4844 2.72641,24.0268 3.46431,22.7507" id="Shape" fill="#3B1159"></path>
            <path d="M27.4878,26.496 C27.086,27.3839 27.1915,28.4762 27.7599,29.2713 C28.6216,30.5753 30.5964,30.8567 31.8023,29.8797 C33.1997,28.8638 33.2573,26.5591 31.8878,25.4928 C30.5595,24.2562 28.1623,24.8123 27.4878,26.496 M23.6653,23.683 C23.2933,23.1287 22.5449,22.6944 22.5116,21.9861 C23.1194,21.3037 23.7253,20.5565 24.4973,20.0725 C25.1481,20.2048 25.576,20.8737 26.1244,21.2297 C27.3878,20.4953 28.827,20.1192 30.2892,20.1168 C30.5189,19.4903 30.7449,18.8638 31.0061,18.25 C32.0102,18.4022 32.9937,18.6746 33.942,19.0306 C33.876,19.6947 33.759,20.3491 33.6439,21.0053 C34.9055,21.7532 35.9617,22.7982 36.695,24.0706 C37.3621,24.0039 38.0608,23.6642 38.7201,23.8868 C39.0685,24.7475 39.2279,25.6712 39.5,26.5591 C38.948,27 38.2535,27.1801 37.5979,27.4064 C37.5772,28.8692 37.2215,30.3236 36.4713,31.5864 C36.8307,32.1571 37.5736,32.5853 37.6251,33.2937 C37.0082,33.9857 36.3895,34.7268 35.6115,35.2351 C34.9776,35.0204 34.5407,34.4448 34.0184,34.0482 C32.7543,34.779 31.3151,35.1702 29.8553,35.1629 C29.633,35.7785 29.4087,36.3917 29.1754,37 C28.1919,36.9169 27.2157,36.6591 26.3062,36.2831 C26.1038,35.6354 26.4504,34.9324 26.5061,34.2726 C25.233,33.5442 24.1731,32.4834 23.4417,31.2091 C22.7855,31.3098 22.1316,31.5342 21.4632,31.462 C21.1184,30.579 20.7736,29.6183 20.75,28.6746 C21.1924,28.1906 21.9722,28.1445 22.5522,27.857 C22.551,26.3941 22.943,24.9549 23.6653,23.683" id="Shape" fill="#CBC0D4"></path>
        </g>
    </g>
</svg>