<?xml version="1.0" encoding="UTF-8"?>
<svg width="38px" height="18px" viewBox="0 0 38 18" version="1.1" xmlns="http://www.w3.org/2000/svg" xmlns:xlink="http://www.w3.org/1999/xlink">
    <!-- Generator: Sketch 52.4 (67378) - http://www.bohemiancoding.com/sketch -->
    <title>iOS</title>
    <desc>Created with Sketch.</desc>
    <g id="Page-1" stroke="none" stroke-width="1" fill="none" fill-rule="evenodd">
        <g id="iOS" fill="#311052">
            <path d="M13.6487,18 C18.7472,18 21.9537,14.602 21.9537,9.14851 C21.9537,3.69505 18.7472,0.285149 13.6487,0.285149 C8.53797,0.285149 5.34375,3.69505 5.34375,9.14851 C5.34375,14.602 8.53797,18 13.6487,18 Z M13.6487,15.6594 C10.2825,15.6594 8.15712,13.1406 8.15712,9.14851 C8.15712,5.14455 10.2825,2.62574 13.6487,2.62574 C17.0149,2.62574 19.128,5.14455 19.128,9.14851 C19.128,13.1406 17.0149,15.6594 13.6487,15.6594 Z M30.5412,18 C34.7428,18 37.3842,15.9921 37.3842,12.7842 C37.3842,10.2772 35.8731,8.86337 32.2366,8.03168 L30.2832,7.56832 C27.9981,7.02178 27.0644,6.30891 27.0644,5.09703 C27.0644,3.57624 28.5264,2.53069 30.6641,2.53069 C32.8017,2.53069 34.2637,3.56436 34.4234,5.27525 L37.1016,5.27525 C37.0156,2.31683 34.448,0.285149 30.7009,0.285149 C26.917,0.285149 24.2511,2.31683 24.2511,5.27525 C24.2511,7.66337 25.7622,9.13663 29.0178,9.89703 L31.3152,10.4317 C33.6126,10.9782 34.5831,11.7743 34.5831,13.105 C34.5831,14.6376 32.9737,15.7545 30.7378,15.7545 C28.4035,15.7545 26.6959,14.6376 26.4993,12.9386 L23.7842,12.9386 C23.9562,16.0396 26.6099,18 30.5412,18 Z" id="Shape"></path>
            <path d="M1.56025,2.9703 C2.42023,2.9703 3.1205,2.30495 3.1205,1.48515 C3.1205,0.641584 2.42023,0 1.56025,0 C0.700271,0 0,0.641584 0,1.48515 C0,2.30495 0.700271,2.9703 1.56025,2.9703 Z" id="Path" opacity="0.6"></path>
            <polygon id="Path" opacity="0.6" points="2.88665 17.7149 2.88665 4.81188 0.220703 4.81188 0.220703 17.7149"></polygon>
        </g>
    </g>
</svg>