<?xml version="1.0" encoding="UTF-8"?>
<svg width="324px" height="295px" viewBox="0 0 324 295" version="1.1" xmlns="http://www.w3.org/2000/svg" xmlns:xlink="http://www.w3.org/1999/xlink">
    <!-- Generator: Sketch 50.2 (55047) - http://www.bohemiancoding.com/sketch -->
    <title>#1-LA-Normal Badge</title>
    <desc>Created with Sketch.</desc>
    <defs>
        <path d="M159.5,260.047445 C227.769299,260.047445 283.1125,204.73337 283.1125,136.5 C283.1125,68.2666301 227.769299,12.9525547 159.5,12.9525547 C91.2307014,12.9525547 35.8875,68.2666301 35.8875,136.5 C35.8875,204.73337 91.2307014,260.047445 159.5,260.047445 Z" id="path-1"></path>
        <mask id="mask-2" maskContentUnits="userSpaceOnUse" maskUnits="objectBoundingBox" x="0" y="0" width="247.225" height="247.094891" fill="white">
            <use xlink:href="#path-1"></use>
        </mask>
    </defs>
    <g id="#1-LA-Normal-Badge" stroke="none" stroke-width="1" fill="none" fill-rule="evenodd">
        <g id="NormalBadge" transform="translate(2.000000, 11.000000)">
            <g>
                <ellipse id="Oval" stroke="#505c5f" stroke-width="8" fill="#FFFFFF" cx="159.5" cy="136.5" rx="132.571875" ry="132.5"></ellipse>
                <use id="Oval" stroke="#505c5f" mask="url(#mask-2)" stroke-width="6" fill="#FFFFFF" stroke-dasharray="3" xlink:href="#path-1"></use>
                <g id="goodfirms-logo" transform="translate(90.715625, 104.616788)" fill="#505c5f" fill-rule="nonzero">
                    <g id="Group">
                        <path d="M17.8139192,19.0549542 C17.3318955,19.3804943 16.9756171,19.6192238 16.7241265,19.7711426 C15.8229518,20.3354123 14.9636921,20.7694659 14.1673051,21.1167089 C13.0146398,21.5941679 11.9877197,21.8328973 11.0655875,21.8328973 C7.9009971,21.8328973 5.2813031,20.8562767 3.16459035,18.8813327 C1.0478776,16.9063886 2.84217094e-14,14.432283 2.84217094e-14,11.437313 C2.84217094e-14,8.5508564 0.94308984,6.05504806 2.85022707,3.9281853 C4.7573643,1.80132254 7.06269502,0.759593842 9.78717678,0.759593842 C10.9188846,0.759593842 12.1344226,0.954917974 13.3918757,1.36726892 C15.0265648,1.88813327 16.3468906,2.66942979 17.3947682,3.68945581 L15.5714611,5.72950785 C14.7960317,4.969914 13.7900693,4.40564428 12.6164464,4.05840139 C11.7362291,3.79796921 10.7721817,3.66775313 9.70334657,3.66775313 C7.79620934,3.66775313 6.18247784,4.44904965 4.90406717,5.98994001 C3.6256565,7.55253307 2.97597238,9.39726096 2.97597238,11.5675291 C2.97597238,13.7160945 3.7094867,15.4740117 5.17651534,16.8846859 C6.64354398,18.2953603 8.50876611,19.0115488 10.7721817,19.0115488 C11.7152716,19.0115488 12.679319,18.7077112 13.664324,18.1217388 C14.4816685,17.492361 14.9008195,17.1885235 14.921777,17.1668208 L14.921777,12.7177712 L8.80217184,12.7177712 L9.68238902,9.939828 L17.8139192,9.939828 L17.8139192,19.0549542 Z" id="Shape"></path>
                        <path d="M36.29848,13.6292838 C36.29848,15.7778492 35.5440082,17.6442798 34.0350645,19.2068728 C32.5261208,20.7694659 30.6608986,21.5724651 28.4393981,21.5724651 C26.3855579,21.5724651 24.5832085,20.7911686 23.0323496,19.2502782 C21.4814907,17.7093879 20.7270189,15.8429573 20.7270189,13.6509865 C20.7270189,11.4807184 21.4605333,9.61428777 22.9275619,8.00828936 C24.3945905,6.40229096 26.19694,5.62099443 28.3136528,5.62099443 C30.6608986,5.62099443 32.5680358,6.38058828 34.056022,7.92147865 C35.5440082,9.41896365 36.29848,11.3287996 36.29848,13.6292838 Z M33.4272955,13.6726892 C33.4272955,12.2186096 32.9452717,10.9815567 31.9812243,9.98323336 C31.017177,8.96320734 29.8225965,8.46404568 28.397483,8.46404568 C27.0561997,8.46404568 25.9244918,8.98491002 24.9814019,10.0266387 C24.0383122,11.0683674 23.5772459,12.2620149 23.5772459,13.6075811 C23.5772459,15.0182554 24.0592697,16.2119029 25.0023595,17.2102262 C25.9454494,18.2085495 27.1190723,18.7294139 28.5441859,18.7294139 C29.8645115,18.7294139 30.9962194,18.2302522 31.9602667,17.2319288 C32.9452717,16.2336056 33.4272955,15.039958 33.4272955,13.6726892 Z" id="Shape"></path>
                        <path d="M54.5315504,13.6292838 C54.5315504,15.7778492 53.7770784,17.6442798 52.2681347,19.2068728 C50.759191,20.7694659 48.8939688,21.5724651 46.6724683,21.5724651 C44.6186282,21.5724651 42.8162787,20.7911686 41.26542,19.2502782 C39.7145611,17.7093879 38.9600891,15.8429573 38.9600891,13.6509865 C38.9600891,11.4807184 39.6936035,9.61428777 41.1606321,8.00828936 C42.6276608,6.40229096 44.4300102,5.62099443 46.546723,5.62099443 C48.8939688,5.62099443 50.8011061,6.38058828 52.2890923,7.92147865 C53.7770784,9.41896365 54.5315504,11.3287996 54.5315504,13.6292838 Z M51.6603657,13.6726892 C51.6603657,12.2186096 51.1783419,10.9815567 50.2142946,9.98323336 C49.2502472,8.96320734 48.0556667,8.46404568 46.6305532,8.46404568 C45.2892699,8.46404568 44.1575621,8.98491002 43.2144723,10.0266387 C42.2713824,11.0683674 41.8103163,12.2620149 41.8103163,13.6075811 C41.8103163,15.0182554 42.29234,16.2119029 43.2354298,17.2102262 C44.1785196,18.2085495 45.3521425,18.7294139 46.777256,18.7294139 C48.0975819,18.7294139 49.2292896,18.2302522 50.1933371,17.2319288 C51.1783419,16.2336056 51.6603657,15.039958 51.6603657,13.6726892 Z" id="Shape"></path>
                        <path d="M71.4023797,21.1384115 L68.7617281,21.5507624 L68.7617281,18.9681434 C68.5731102,19.1851701 68.3844922,19.402197 68.1958742,19.6192238 C67.692893,20.0966828 67.127039,20.4873311 66.5192701,20.7911686 C65.6390529,21.2035196 64.6750054,21.4205463 63.6480854,21.4205463 C61.5942453,21.4205463 59.833811,20.6609525 58.4086974,19.1200622 C56.9835838,17.5791718 56.2710272,15.7561466 56.2710272,13.6292838 C56.2710272,11.437313 56.9835838,9.54917974 58.3877398,7.98658669 C59.7918958,6.42399363 61.5104152,5.64269712 63.5642552,5.64269712 C64.7378782,5.64269712 65.7647982,5.83802125 66.6240579,6.22866952 C67.2318268,6.51080436 67.7557656,6.87974995 68.1958742,7.33550626 C68.3425771,7.53083039 68.48928,7.7478572 68.6359828,7.94318133 L68.6359828,1.17194479 L71.4442947,0.759593842 L71.4023797,21.1384115 Z M68.9293886,13.8246079 C68.9293886,12.3054203 68.4264073,11.0249621 67.3994872,9.98323336 C66.3725672,8.91980199 65.2199019,8.39893763 63.899576,8.39893763 C62.4325475,8.39893763 61.2589245,8.8980993 60.3577498,9.89642263 C59.5194477,10.8513406 59.079339,12.0232854 59.079339,13.3905543 C59.079339,14.9314446 59.5194477,16.2119029 60.3996649,17.2102262 C61.2798821,18.2085495 62.3906323,18.7077112 63.7528732,18.7077112 C65.0941565,18.7077112 66.2677795,18.2519549 67.3156571,17.3187396 C68.3844922,16.3638217 68.9293886,15.1918768 68.9293886,13.8246079 Z" id="Shape"></path>
                        <polygon id="Shape" points="86.2193689 3.99329334 78.360287 3.99329334 78.360287 9.39726096 84.4589345 9.39726096 84.4589345 12.1752042 78.360287 12.1752042 78.360287 21.1167089 75.3004843 21.5724651 75.3004843 1.19364747 85.6116 1.19364747"></polygon>
                        <path d="M92.5275921,2.40899761 L90.6414124,4.81799523 L88.839063,2.40899761 L90.7462001,0.0217026812 L92.5275921,2.40899761 Z M91.9617382,21.1384115 L89.1534262,21.5290597 L89.1534262,6.44569633 L91.9617382,6.01164269 L91.9617382,21.1384115 Z" id="Shape"></path>
                        <path d="M104.641057,5.85972393 L103.320731,8.94150466 C103.174029,8.91980199 102.985411,8.8980993 102.796793,8.8980993 C102.524344,8.8980993 102.251896,8.91980199 101.979448,8.96320734 C101.707,9.0066127 101.413594,9.11512611 101.099231,9.26704488 C100.512419,9.52747706 100.009438,10.0917468 99.5693296,10.9381513 C99.0873059,11.8930693 98.8358152,12.934798 98.8358152,14.0416348 L98.8358152,21.1167089 L96.0275033,21.5724651 L96.0275033,6.44569633 L98.6262398,5.96823734 L98.6262398,9.11512611 C98.9615606,8.57255908 99.317839,8.02999206 99.6531598,7.46572234 C100.135183,6.90145262 100.701037,6.48910168 101.329764,6.25037219 C101.665085,6.1201561 102.272854,6.01164269 103.194986,5.92483197 C104.075203,5.85972393 104.578185,5.81631856 104.641057,5.85972393 Z" id="Shape"></path>
                        <path d="M125.556694,21.1384115 L122.748382,21.5507624 L122.748382,11.1985835 C122.748382,10.2436655 122.538807,9.54917974 122.119655,9.11512611 C121.700505,8.68107249 121.071778,8.46404568 120.254433,8.46404568 C119.269428,8.46404568 118.514957,8.87639662 118.011975,9.7010985 C117.676654,10.2653682 117.488037,10.8730433 117.488037,11.4807184 L117.488037,21.1167089 L114.679725,21.6375731 L114.679725,11.2636916 C114.679725,10.3521789 114.470149,9.65769314 114.071956,9.18023415 C113.652805,8.70277516 113.107908,8.46404568 112.395351,8.46404568 C112.269606,8.46404568 112.185776,8.46404568 112.122903,8.46404568 C111.137898,8.46404568 110.425341,8.87639662 109.985233,9.72280119 C109.649912,10.3521789 109.482252,11.1551781 109.482252,12.1317988 L109.482252,21.1167089 L106.569152,21.6375731 L106.569152,6.44569633 L109.188846,5.98994001 L109.188846,7.92147865 C109.482252,7.46572234 109.775657,7.09677676 110.048106,6.83634459 C110.802577,6.1201561 111.682795,5.7729132 112.6678,5.7729132 C113.77855,5.7729132 114.595894,5.94653466 115.161748,6.31548023 C115.643772,6.61931777 116.104838,7.22699285 116.565904,8.09510009 C117.529952,6.55420973 118.892193,5.7729132 120.694541,5.7729132 C122.413062,5.7729132 123.691472,6.31548023 124.529774,7.42231697 C125.221373,8.33382959 125.556694,9.67939582 125.556694,11.437313 L125.556694,21.1384115 Z" id="Shape"></path>
                        <path d="M138.382716,16.5591458 C138.382716,17.9481174 137.900693,19.0983595 136.936645,19.9881694 C135.972597,20.899682 134.757059,21.3337357 133.290031,21.3337357 C132.179281,21.3337357 131.194275,21.0733035 130.2931,20.5524391 C129.391926,20.0315748 128.721284,19.4456023 128.281176,18.7511166 L130.251186,16.9714968 C130.397889,17.1885235 130.523634,17.3621449 130.649379,17.492361 C131.382893,18.2519549 132.26311,18.6426032 133.290031,18.6426032 C134.002587,18.6426032 134.568441,18.4472791 134.966635,18.0783335 C135.385786,17.7093879 135.574404,17.1885235 135.574404,16.5157404 C135.574404,15.7561466 135.09238,15.2352822 134.128333,14.9531473 C132.221196,14.367175 131.194275,14.0416348 131.047573,13.9765267 C130.167355,13.5207704 129.538629,13.0433114 129.140436,12.5007443 C128.700326,11.8713666 128.469794,11.0466647 128.469794,9.98323336 C128.469794,8.68107249 128.951818,7.59593842 129.894908,6.72783118 C130.837997,5.85972393 131.969705,5.44737299 133.269074,5.44737299 C134.254078,5.44737299 135.176211,5.6643998 136.014512,6.1201561 C136.852814,6.57591241 137.460584,7.0533714 137.816862,7.6176411 L136.140257,9.46236901 C135.825894,9.15853147 135.553447,8.91980199 135.322913,8.76788321 C134.652272,8.29042422 134.002587,8.05169473 133.394819,8.05169473 C132.808007,8.05169473 132.325983,8.18191082 131.948747,8.442343 C131.508639,8.76788321 131.278106,9.2453422 131.278106,9.87471995 C131.278106,10.482395 131.487682,10.9381513 131.92779,11.2202862 C132.305026,11.4590157 133.101413,11.7194479 134.358865,12.0015827 C135.616319,12.3054203 136.580366,12.8262846 137.271966,13.5641758 C138.047395,14.3454723 138.382716,15.3220929 138.382716,16.5591458 Z" id="Shape"></path>
                    </g>
                </g>
                <path d="M183.425,41.8467153 L149.206223,41.8467153 C136.835843,44.7890803 136.571875,55.0372555 136.571875,55.0372555 L136.571875,89.6715328 L149.734158,89.6715328 L149.734158,58.1390365 C149.734158,55.4585693 152.36481,54.9848759 152.36481,54.9848759 L183.425,54.9848759 L183.425,41.8467153 Z M156.183639,58.793437 C156.183639,58.793437 153.51875,58.5303552 153.51875,60.8867519 L153.51875,71.3533265 L171.101996,71.3533265 L171.101996,74.4944328 C171.101996,74.4944328 171.154517,76.063852 169.503519,76.063852 L153.51875,76.063852 L153.51875,89.6715328 L172.700472,89.6715328 C172.700472,89.6715328 184.316832,87.8934625 184.421875,76.063852 L184.421875,58.793437 L156.183639,58.793437 Z" id="Fill-1" fill="#505c5f"></path>
                <polygon id="Rectangle-Copy" fill="#505c5f" points="0 162.405109 35.8875 162.405109 35.8875 218.20073 0 218.20073 11.5192342 192.000972"></polygon>
                <polygon id="Rectangle-Copy-3" fill="#505c5f" transform="translate(301.056250, 190.302920) scale(-1, 1) translate(-301.056250, -190.302920) " points="283.1125 162.405109 319 162.405109 319 218.20073 283.1125 218.20073 294.631734 192.000972"></polygon>
                <polygon id="Rectangle-Copy-2" fill="#505c5f" points="17.94375 143.474453 35.8875 162.313458 35.8875 218.109079 17.94375 199.270073"></polygon>
                <polygon id="Rectangle-Copy-4" fill="#505c5f" transform="translate(292.084375, 180.791766) scale(-1, 1) translate(-292.084375, -180.791766) " points="283.1125 143.474453 301.05625 162.313458 301.05625 218.109079 283.1125 199.270073"></polygon>
                <rect id="Rectangle" fill="#505c5f" x="17.94375" y="143.474453" width="283.1125" height="55.7956204"></rect>
                <path d="M119.77325,227.879606 C119.306581,227.618271 118.977584,227.319608 118.78625,226.983606 C118.594916,226.647604 118.49925,226.358274 118.49925,226.115606 C118.49925,226.031605 118.531916,225.959273 118.59725,225.898606 C118.662584,225.837939 118.73725,225.807606 118.82125,225.807606 L119.43725,225.807606 C119.52125,225.807606 119.59125,225.828606 119.64725,225.870606 C119.70325,225.912606 119.749916,225.989605 119.78725,226.101606 C120.048585,226.848276 120.641245,227.221606 121.56525,227.221606 C122.265254,227.221606 122.783248,227.072274 123.11925,226.773606 C123.455252,226.474938 123.62325,225.94761 123.62325,225.191606 L123.62325,224.225606 C123.081914,224.916276 122.325922,225.261606 121.35525,225.261606 C120.365912,225.261606 119.626252,224.944276 119.13625,224.309606 C118.646248,223.674936 118.38725,222.872277 118.35925,221.901606 L118.34525,221.509606 L118.35925,221.131606 C118.38725,220.170268 118.646248,219.369942 119.13625,218.730606 C119.626252,218.091269 120.365912,217.771606 121.35525,217.771606 C122.335255,217.771606 123.100581,218.130936 123.65125,218.849606 L123.65125,218.247606 C123.65125,218.154272 123.681583,218.074939 123.74225,218.009606 C123.802917,217.944272 123.879916,217.911606 123.97325,217.911606 L124.57525,217.911606 C124.668584,217.911606 124.745583,217.944272 124.80625,218.009606 C124.866917,218.074939 124.89725,218.154272 124.89725,218.247606 L124.89725,225.037606 C124.89725,227.193617 123.809928,228.271606 121.63525,228.271606 C120.860579,228.271606 120.239919,228.14094 119.77325,227.879606 Z M123.08425,223.532606 C123.415585,223.107937 123.59525,222.596942 123.62325,221.999606 C123.632583,221.915605 123.63725,221.752274 123.63725,221.509606 C123.63725,221.276271 123.632583,221.117606 123.62325,221.033606 C123.59525,220.43627 123.415585,219.925275 123.08425,219.500606 C122.752915,219.075937 122.260587,218.863606 121.60725,218.863606 C120.935247,218.863606 120.447585,219.075937 120.14425,219.500606 C119.840915,219.925275 119.67525,220.473602 119.64725,221.145606 L119.63325,221.509606 L119.64725,221.887606 C119.67525,222.559609 119.840915,223.107937 120.14425,223.532606 C120.447585,223.957275 120.935247,224.169606 121.60725,224.169606 C122.260587,224.169606 122.752915,223.957275 123.08425,223.532606 Z M127.59225,224.463606 C127.036914,223.884936 126.740584,223.114944 126.70325,222.153606 L126.68925,221.551606 L126.70325,220.949606 C126.740584,219.988268 127.041581,219.218275 127.60625,218.639606 C128.170919,218.060936 128.957245,217.771606 129.96525,217.771606 C130.973255,217.771606 131.759581,218.060936 132.32425,218.639606 C132.888919,219.218275 133.189916,219.988268 133.22725,220.949606 C133.245917,221.15494 133.25525,221.355605 133.25525,221.551606 C133.25525,221.747607 133.245917,221.948271 133.22725,222.153606 C133.189916,223.114944 132.893586,223.884936 132.33825,224.463606 C131.782914,225.042275 130.991922,225.331606 129.96525,225.331606 C128.938578,225.331606 128.147586,225.042275 127.59225,224.463606 Z M131.38625,223.714606 C131.736252,223.336604 131.92525,222.792943 131.95325,222.083606 C131.962583,221.990272 131.96725,221.81294 131.96725,221.551606 C131.96725,221.290271 131.962583,221.11294 131.95325,221.019606 C131.92525,220.310269 131.736252,219.766608 131.38625,219.388606 C131.036248,219.010604 130.562586,218.821606 129.96525,218.821606 C129.367914,218.821606 128.894252,219.010604 128.54425,219.388606 C128.194248,219.766608 128.00525,220.310269 127.97725,221.019606 L127.96325,221.551606 L127.97725,222.083606 C128.00525,222.792943 128.194248,223.336604 128.54425,223.714606 C128.894252,224.092608 129.367914,224.281606 129.96525,224.281606 C130.562586,224.281606 131.036248,224.092608 131.38625,223.714606 Z M135.60025,224.463606 C135.044914,223.884936 134.748584,223.114944 134.71125,222.153606 L134.69725,221.551606 L134.71125,220.949606 C134.748584,219.988268 135.049581,219.218275 135.61425,218.639606 C136.178919,218.060936 136.965245,217.771606 137.97325,217.771606 C138.981255,217.771606 139.767581,218.060936 140.33225,218.639606 C140.896919,219.218275 141.197916,219.988268 141.23525,220.949606 C141.253917,221.15494 141.26325,221.355605 141.26325,221.551606 C141.26325,221.747607 141.253917,221.948271 141.23525,222.153606 C141.197916,223.114944 140.901586,223.884936 140.34625,224.463606 C139.790914,225.042275 138.999922,225.331606 137.97325,225.331606 C136.946578,225.331606 136.155586,225.042275 135.60025,224.463606 Z M139.39425,223.714606 C139.744252,223.336604 139.93325,222.792943 139.96125,222.083606 C139.970583,221.990272 139.97525,221.81294 139.97525,221.551606 C139.97525,221.290271 139.970583,221.11294 139.96125,221.019606 C139.93325,220.310269 139.744252,219.766608 139.39425,219.388606 C139.044248,219.010604 138.570586,218.821606 137.97325,218.821606 C137.375914,218.821606 136.902252,219.010604 136.55225,219.388606 C136.202248,219.766608 136.01325,220.310269 135.98525,221.019606 L135.97125,221.551606 L135.98525,222.083606 C136.01325,222.792943 136.202248,223.336604 136.55225,223.714606 C136.902252,224.092608 137.375914,224.281606 137.97325,224.281606 C138.570586,224.281606 139.044248,224.092608 139.39425,223.714606 Z M143.48225,224.379606 C142.992248,223.744936 142.728584,222.942277 142.69125,221.971606 L142.67725,221.551606 L142.69125,221.131606 C142.728584,220.170268 142.994581,219.369942 143.48925,218.730606 C143.983919,218.091269 144.716578,217.771606 145.68725,217.771606 C146.657922,217.771606 147.413914,218.116936 147.95525,218.807606 L147.95525,215.573606 C147.95525,215.480272 147.985583,215.403273 148.04625,215.342606 C148.106917,215.281939 148.183916,215.251606 148.27725,215.251606 L148.90725,215.251606 C149.000584,215.251606 149.077583,215.281939 149.13825,215.342606 C149.198917,215.403273 149.22925,215.480272 149.22925,215.573606 L149.22925,224.869606 C149.22925,224.96294 149.198917,225.039939 149.13825,225.100606 C149.077583,225.161273 149.000584,225.191606 148.90725,225.191606 L148.30525,225.191606 C148.211916,225.191606 148.13725,225.161273 148.08125,225.100606 C148.02525,225.039939 147.99725,224.96294 147.99725,224.869606 L147.99725,224.267606 C147.465247,224.976943 146.695255,225.331606 145.68725,225.331606 C144.707245,225.331606 143.972252,225.014276 143.48225,224.379606 Z M147.42325,223.588606 C147.749918,223.154604 147.92725,222.638942 147.95525,222.041606 C147.964583,221.938939 147.96925,221.761607 147.96925,221.509606 C147.96925,221.248271 147.964583,221.066273 147.95525,220.963606 C147.936583,220.39427 147.756918,219.901941 147.41625,219.486606 C147.075582,219.07127 146.58792,218.863606 145.95325,218.863606 C145.281247,218.863606 144.791252,219.073604 144.48325,219.493606 C144.175248,219.913608 144.00725,220.464269 143.97925,221.145606 L143.96525,221.551606 C143.96525,223.343615 144.62791,224.239606 145.95325,224.239606 C146.606587,224.239606 147.096582,224.022608 147.42325,223.588606 Z M152.16225,225.100606 C152.101583,225.039939 152.07125,224.96294 152.07125,224.869606 L152.07125,218.989606 L150.86725,218.989606 C150.773916,218.989606 150.696917,218.961606 150.63625,218.905606 C150.575583,218.849606 150.54525,218.77494 150.54525,218.681606 L150.54525,218.233606 C150.54525,218.140272 150.575583,218.063273 150.63625,218.002606 C150.696917,217.941939 150.773916,217.911606 150.86725,217.911606 L152.07125,217.911606 L152.07125,217.211606 C152.07125,216.455602 152.255581,215.869941 152.62425,215.454606 C152.992919,215.03927 153.597246,214.831606 154.43725,214.831606 L156.53725,214.831606 C156.630584,214.831606 156.70525,214.861939 156.76125,214.922606 C156.81725,214.983273 156.84525,215.060272 156.84525,215.153606 L156.84525,215.601606 C156.84525,215.69494 156.81725,215.769606 156.76125,215.825606 C156.70525,215.881606 156.630584,215.909606 156.53725,215.909606 L154.46525,215.909606 C154.035915,215.909606 153.737251,216.021605 153.56925,216.245606 C153.401249,216.469607 153.31725,216.814937 153.31725,217.281606 L153.31725,217.911606 L156.53725,217.911606 C156.630584,217.911606 156.70525,217.941939 156.76125,218.002606 C156.81725,218.063273 156.84525,218.140272 156.84525,218.233606 L156.84525,224.869606 C156.84525,224.96294 156.81725,225.039939 156.76125,225.100606 C156.70525,225.161273 156.630584,225.191606 156.53725,225.191606 L155.92125,225.191606 C155.827916,225.191606 155.750917,225.161273 155.69025,225.100606 C155.629583,225.039939 155.59925,224.96294 155.59925,224.869606 L155.59925,218.989606 L153.31725,218.989606 L153.31725,224.869606 C153.31725,224.96294 153.286917,225.039939 153.22625,225.100606 C153.165583,225.161273 153.088584,225.191606 152.99525,225.191606 L152.39325,225.191606 C152.299916,225.191606 152.222917,225.161273 152.16225,225.100606 Z M159.03625,225.100606 C158.975583,225.039939 158.94525,224.96294 158.94525,224.869606 L158.94525,218.247606 C158.94525,218.154272 158.975583,218.074939 159.03625,218.009606 C159.096917,217.944272 159.173916,217.911606 159.26725,217.911606 L159.85525,217.911606 C159.957917,217.911606 160.039583,217.941939 160.10025,218.002606 C160.160917,218.063273 160.19125,218.144939 160.19125,218.247606 L160.19125,218.863606 C160.573919,218.228936 161.222579,217.911606 162.13725,217.911606 L162.68325,217.911606 C162.785917,217.911606 162.86525,217.939606 162.92125,217.995606 C162.97725,218.051606 163.00525,218.130939 163.00525,218.233606 L163.00525,218.751606 C163.00525,218.84494 162.97725,218.921939 162.92125,218.982606 C162.86525,219.043273 162.785917,219.073606 162.68325,219.073606 L161.88525,219.073606 C161.371914,219.073606 160.968251,219.222938 160.67425,219.521606 C160.380249,219.820274 160.23325,220.22627 160.23325,220.739606 L160.23325,224.869606 C160.23325,224.96294 160.200584,225.039939 160.13525,225.100606 C160.069916,225.161273 159.990584,225.191606 159.89725,225.191606 L159.26725,225.191606 C159.173916,225.191606 159.096917,225.161273 159.03625,225.100606 Z M164.30025,225.100606 C164.239583,225.039939 164.20925,224.96294 164.20925,224.869606 L164.20925,218.233606 C164.20925,218.140272 164.239583,218.063273 164.30025,218.002606 C164.360917,217.941939 164.437916,217.911606 164.53125,217.911606 L165.11925,217.911606 C165.212584,217.911606 165.28725,217.941939 165.34325,218.002606 C165.39925,218.063273 165.42725,218.140272 165.42725,218.233606 L165.42725,218.709606 C165.931253,218.084269 166.612579,217.771606 167.47125,217.771606 C168.497922,217.771606 169.225915,218.200935 169.65525,219.059606 C169.879251,218.667604 170.198915,218.35494 170.61425,218.121606 C171.029585,217.888271 171.493914,217.771606 172.00725,217.771606 C172.772587,217.771606 173.397914,218.032937 173.88325,218.555606 C174.368586,219.078275 174.61125,219.834268 174.61125,220.823606 L174.61125,224.869606 C174.61125,224.96294 174.580917,225.039939 174.52025,225.100606 C174.459583,225.161273 174.382584,225.191606 174.28925,225.191606 L173.68725,225.191606 C173.593916,225.191606 173.516917,225.161273 173.45625,225.100606 C173.395583,225.039939 173.36525,224.96294 173.36525,224.869606 L173.36525,220.949606 C173.36525,220.202935 173.211252,219.668607 172.90325,219.346606 C172.595248,219.024604 172.189253,218.863606 171.68525,218.863606 C171.237248,218.863606 170.852252,219.029271 170.53025,219.360606 C170.208248,219.691941 170.04725,220.221602 170.04725,220.949606 L170.04725,224.869606 C170.04725,224.96294 170.016917,225.039939 169.95625,225.100606 C169.895583,225.161273 169.818584,225.191606 169.72525,225.191606 L169.10925,225.191606 C169.015916,225.191606 168.938917,225.161273 168.87825,225.100606 C168.817583,225.039939 168.78725,224.96294 168.78725,224.869606 L168.78725,220.949606 C168.78725,220.212269 168.626252,219.680274 168.30425,219.353606 C167.982248,219.026938 167.583252,218.863606 167.10725,218.863606 C166.659248,218.863606 166.274252,219.026938 165.95225,219.353606 C165.630248,219.680274 165.46925,220.207602 165.46925,220.935606 L165.46925,224.869606 C165.46925,224.96294 165.438917,225.039939 165.37825,225.100606 C165.317583,225.161273 165.240584,225.191606 165.14725,225.191606 L164.53125,225.191606 C164.437916,225.191606 164.360917,225.161273 164.30025,225.100606 Z M177.50225,225.016606 C177.058914,224.806605 176.729918,224.566274 176.51525,224.295606 C176.300582,224.024938 176.19325,223.80094 176.19325,223.623606 C176.19325,223.530272 176.225916,223.457939 176.29125,223.406606 C176.356584,223.355272 176.426583,223.329606 176.50125,223.329606 L177.08925,223.329606 C177.14525,223.329606 177.189583,223.338939 177.22225,223.357606 C177.254917,223.376273 177.29925,223.418272 177.35525,223.483606 C177.569918,223.74494 177.810249,223.950272 178.07625,224.099606 C178.342251,224.24894 178.699248,224.323606 179.14725,224.323606 C179.651253,224.323606 180.054915,224.230273 180.35825,224.043606 C180.661585,223.856938 180.81325,223.586274 180.81325,223.231606 C180.81325,222.998271 180.747917,222.811607 180.61725,222.671606 C180.486583,222.531605 180.269585,222.405606 179.96625,222.293606 C179.662915,222.181605 179.212586,222.060273 178.61525,221.929606 C177.803246,221.752272 177.229252,221.495608 176.89325,221.159606 C176.557248,220.823604 176.38925,220.389608 176.38925,219.857606 C176.38925,219.512271 176.491916,219.178607 176.69725,218.856606 C176.902584,218.534604 177.208248,218.273274 177.61425,218.072606 C178.020252,217.871938 178.503247,217.771606 179.06325,217.771606 C179.651253,217.771606 180.152915,217.869605 180.56825,218.065606 C180.983585,218.261607 181.296249,218.490271 181.50625,218.751606 C181.716251,219.01294 181.82125,219.232272 181.82125,219.409606 C181.82125,219.493606 181.790917,219.563606 181.73025,219.619606 C181.669583,219.675606 181.59725,219.703606 181.51325,219.703606 L180.98125,219.703606 C180.850583,219.703606 180.75725,219.652273 180.70125,219.549606 C180.542583,219.372272 180.409584,219.234606 180.30225,219.136606 C180.194916,219.038605 180.038584,218.954606 179.83325,218.884606 C179.627916,218.814605 179.371252,218.779606 179.06325,218.779606 C178.605914,218.779606 178.255918,218.875272 178.01325,219.066606 C177.770582,219.25794 177.64925,219.512271 177.64925,219.829606 C177.64925,220.025607 177.700583,220.191272 177.80325,220.326606 C177.905917,220.46194 178.101915,220.587939 178.39125,220.704606 C178.680585,220.821273 179.109914,220.940272 179.67925,221.061606 C180.565921,221.248273 181.193581,221.514271 181.56225,221.859606 C181.930919,222.204941 182.11525,222.64827 182.11525,223.189606 C182.11525,223.590941 182.000918,223.954938 181.77225,224.281606 C181.543582,224.608274 181.202919,224.864938 180.75025,225.051606 C180.297581,225.238273 179.758586,225.331606 179.13325,225.331606 C178.489247,225.331606 177.945586,225.226607 177.50225,225.016606 Z M183.74625,225.100606 C183.685583,225.039939 183.65525,224.96294 183.65525,224.869606 L183.65525,223.903606 C183.65525,223.810272 183.685583,223.730939 183.74625,223.665606 C183.806917,223.600272 183.883916,223.567606 183.97725,223.567606 L184.94325,223.567606 C185.036584,223.567606 185.113583,223.600272 185.17425,223.665606 C185.234917,223.730939 185.26525,223.810272 185.26525,223.903606 L185.26525,224.869606 C185.26525,224.96294 185.234917,225.039939 185.17425,225.100606 C185.113583,225.161273 185.036584,225.191606 184.94325,225.191606 L183.97725,225.191606 C183.883916,225.191606 183.806917,225.161273 183.74625,225.100606 Z M187.82725,224.484606 C187.267247,223.919936 186.97325,223.128944 186.94525,222.111606 L186.93125,221.551606 L186.94525,220.991606 C186.97325,219.974267 187.267247,219.183275 187.82725,218.618606 C188.387253,218.053936 189.166578,217.771606 190.16525,217.771606 C190.837253,217.771606 191.404248,217.890605 191.86625,218.128606 C192.328252,218.366607 192.673582,218.662937 192.90225,219.017606 C193.130918,219.372274 193.254583,219.726937 193.27325,220.081606 C193.282583,220.165606 193.25225,220.240272 193.18225,220.305606 C193.11225,220.370939 193.03525,220.403606 192.95125,220.403606 L192.33525,220.403606 C192.241916,220.403606 192.171917,220.382606 192.12525,220.340606 C192.078583,220.298606 192.031917,220.221606 191.98525,220.109606 C191.817249,219.65227 191.586251,219.32794 191.29225,219.136606 C190.998249,218.945272 190.627252,218.849606 190.17925,218.849606 C189.591247,218.849606 189.124585,219.031604 188.77925,219.395606 C188.433915,219.759608 188.24725,220.314935 188.21925,221.061606 L188.20525,221.551606 L188.21925,222.041606 C188.24725,222.788276 188.433915,223.343604 188.77925,223.707606 C189.124585,224.071608 189.591247,224.253606 190.17925,224.253606 C190.636586,224.253606 191.009915,224.15794 191.29925,223.966606 C191.588585,223.775272 191.817249,223.450941 191.98525,222.993606 C192.031917,222.881605 192.078583,222.804606 192.12525,222.762606 C192.171917,222.720606 192.241916,222.699606 192.33525,222.699606 L192.95125,222.699606 C193.03525,222.699606 193.11225,222.732272 193.18225,222.797606 C193.25225,222.862939 193.282583,222.937605 193.27325,223.021606 C193.254583,223.366941 193.130918,223.716937 192.90225,224.071606 C192.673582,224.426274 192.328252,224.724938 191.86625,224.967606 C191.404248,225.210274 190.837253,225.331606 190.16525,225.331606 C189.166578,225.331606 188.387253,225.049275 187.82725,224.484606 Z M195.53425,224.463606 C194.978914,223.884936 194.682584,223.114944 194.64525,222.153606 L194.63125,221.551606 L194.64525,220.949606 C194.682584,219.988268 194.983581,219.218275 195.54825,218.639606 C196.112919,218.060936 196.899245,217.771606 197.90725,217.771606 C198.915255,217.771606 199.701581,218.060936 200.26625,218.639606 C200.830919,219.218275 201.131916,219.988268 201.16925,220.949606 C201.187917,221.15494 201.19725,221.355605 201.19725,221.551606 C201.19725,221.747607 201.187917,221.948271 201.16925,222.153606 C201.131916,223.114944 200.835586,223.884936 200.28025,224.463606 C199.724914,225.042275 198.933922,225.331606 197.90725,225.331606 C196.880578,225.331606 196.089586,225.042275 195.53425,224.463606 Z M199.32825,223.714606 C199.678252,223.336604 199.86725,222.792943 199.89525,222.083606 C199.904583,221.990272 199.90925,221.81294 199.90925,221.551606 C199.90925,221.290271 199.904583,221.11294 199.89525,221.019606 C199.86725,220.310269 199.678252,219.766608 199.32825,219.388606 C198.978248,219.010604 198.504586,218.821606 197.90725,218.821606 C197.309914,218.821606 196.836252,219.010604 196.48625,219.388606 C196.136248,219.766608 195.94725,220.310269 195.91925,221.019606 L195.90525,221.551606 L195.91925,222.083606 C195.94725,222.792943 196.136248,223.336604 196.48625,223.714606 C196.836252,224.092608 197.309914,224.281606 197.90725,224.281606 C198.504586,224.281606 198.978248,224.092608 199.32825,223.714606 Z" id="goodfirms.co" fill="#4A4A4A"></path>
            </g>
        </g>
        <path d="M99.9580078,178 L97.4511719,178 L97.4511719,168.088867 L93.9482422,168.088867 L93.9482422,166.021973 L103.469238,166.021973 L103.469238,168.088867 L99.9580078,168.088867 L99.9580078,178 Z M110.259277,165.814453 C113.803711,165.814453 116.036621,168.196777 116.036621,172.015137 C116.036621,175.825195 113.803711,178.20752 110.259277,178.20752 C106.706543,178.20752 104.481934,175.825195 104.481934,172.015137 C104.481934,168.196777 106.706543,165.814453 110.259277,165.814453 Z M110.259277,167.90625 C108.300293,167.90625 107.038574,169.5 107.038574,172.015137 C107.038574,174.521973 108.291992,176.107422 110.259277,176.107422 C112.218262,176.107422 113.47168,174.521973 113.47168,172.015137 C113.47168,169.5 112.218262,167.90625 110.259277,167.90625 Z M117.646973,166.021973 L122.644043,166.021973 C125.101074,166.021973 126.794434,167.657227 126.794434,170.122559 C126.794434,172.57959 125.042969,174.223145 122.519531,174.223145 L120.153809,174.223145 L120.153809,178 L117.646973,178 L117.646973,166.021973 Z M120.153809,168.005859 L120.153809,172.26416 L121.97168,172.26416 C123.407715,172.26416 124.246094,171.500488 124.246094,170.130859 C124.246094,168.769531 123.416016,168.005859 121.97998,168.005859 L120.153809,168.005859 Z M144.60791,166.021973 L144.60791,178 L142.375,178 L142.375,169.915039 L142.308594,169.915039 L139.054688,177.883789 L137.477539,177.883789 L134.223633,169.915039 L134.157227,169.915039 L134.157227,178 L131.924316,178 L131.924316,166.021973 L134.82959,166.021973 L138.23291,174.513672 L138.299316,174.513672 L141.702637,166.021973 L144.60791,166.021973 Z M152.003906,165.814453 C155.54834,165.814453 157.78125,168.196777 157.78125,172.015137 C157.78125,175.825195 155.54834,178.20752 152.003906,178.20752 C148.451172,178.20752 146.226562,175.825195 146.226562,172.015137 C146.226562,168.196777 148.451172,165.814453 152.003906,165.814453 Z M152.003906,167.90625 C150.044922,167.90625 148.783203,169.5 148.783203,172.015137 C148.783203,174.521973 150.036621,176.107422 152.003906,176.107422 C153.962891,176.107422 155.216309,174.521973 155.216309,172.015137 C155.216309,169.5 153.962891,167.90625 152.003906,167.90625 Z M164.770508,178 L159.391602,178 L159.391602,166.021973 L164.679199,166.021973 C166.928711,166.021973 168.339844,167.175781 168.339844,169.010254 C168.339844,170.321777 167.360352,171.41748 166.090332,171.608398 L166.090332,171.674805 C167.717285,171.799316 168.912598,172.986328 168.912598,174.571777 C168.912598,176.680176 167.327148,178 164.770508,178 Z M161.898438,167.889648 L161.898438,171.002441 L163.774414,171.002441 C165.11084,171.002441 165.874512,170.413086 165.874512,169.400391 C165.874512,168.4375 165.202148,167.889648 164.031738,167.889648 L161.898438,167.889648 Z M161.898438,176.132324 L164.131348,176.132324 C165.575684,176.132324 166.355957,175.518066 166.355957,174.372559 C166.355957,173.251953 165.550781,172.654297 164.073242,172.654297 L161.898438,172.654297 L161.898438,176.132324 Z M172.847168,178 L170.340332,178 L170.340332,166.021973 L172.847168,166.021973 L172.847168,178 Z M182.583984,175.924805 L182.583984,178 L174.839355,178 L174.839355,166.021973 L177.346191,166.021973 L177.346191,175.924805 L182.583984,175.924805 Z M192.005371,175.924805 L192.005371,178 L184.069824,178 L184.069824,166.021973 L192.005371,166.021973 L192.005371,168.088867 L186.57666,168.088867 L186.57666,170.977539 L191.698242,170.977539 L191.698242,172.90332 L186.57666,172.90332 L186.57666,175.924805 L192.005371,175.924805 Z M205.311523,178 L204.398438,175.094727 L200.189941,175.094727 L199.276855,178 L196.703613,178 L200.862305,166.021973 L203.809082,166.021973 L207.976074,178 L205.311523,178 Z M202.265137,168.312988 L200.729492,173.21875 L203.858887,173.21875 L202.323242,168.312988 L202.265137,168.312988 Z M209.196289,166.021973 L214.193359,166.021973 C216.650391,166.021973 218.34375,167.657227 218.34375,170.122559 C218.34375,172.57959 216.592285,174.223145 214.068848,174.223145 L211.703125,174.223145 L211.703125,178 L209.196289,178 L209.196289,166.021973 Z M211.703125,168.005859 L211.703125,172.26416 L213.520996,172.26416 C214.957031,172.26416 215.79541,171.500488 215.79541,170.130859 C215.79541,168.769531 214.965332,168.005859 213.529297,168.005859 L211.703125,168.005859 Z M219.821289,166.021973 L224.818359,166.021973 C227.275391,166.021973 228.96875,167.657227 228.96875,170.122559 C228.96875,172.57959 227.217285,174.223145 224.693848,174.223145 L222.328125,174.223145 L222.328125,178 L219.821289,178 L219.821289,166.021973 Z M222.328125,168.005859 L222.328125,172.26416 L224.145996,172.26416 C225.582031,172.26416 226.42041,171.500488 226.42041,170.130859 C226.42041,168.769531 225.590332,168.005859 224.154297,168.005859 L222.328125,168.005859 Z M56.7399902,186.021973 L61.3552246,186.021973 C64.9494629,186.021973 67.0661621,188.163574 67.0661621,191.965332 C67.0661621,195.76709 64.9494629,198 61.3552246,198 L56.7399902,198 L56.7399902,186.021973 Z M59.2468262,188.088867 L59.2468262,195.924805 L61.0563965,195.924805 C63.2976074,195.924805 64.5095215,194.563477 64.5095215,191.973633 C64.5095215,189.466797 63.2644043,188.088867 61.0563965,188.088867 L59.2468262,188.088867 Z M76.6120605,195.924805 L76.6120605,198 L68.6765137,198 L68.6765137,186.021973 L76.6120605,186.021973 L76.6120605,188.088867 L71.1833496,188.088867 L71.1833496,190.977539 L76.3049316,190.977539 L76.3049316,192.90332 L71.1833496,192.90332 L71.1833496,195.924805 L76.6120605,195.924805 Z M84.7053223,198 L81.6838379,198 L77.657959,186.021973 L80.463623,186.021973 L83.2028809,195.418457 L83.2609863,195.418457 L86.0002441,186.021973 L88.7312012,186.021973 L84.7053223,198 Z M97.8869629,195.924805 L97.8869629,198 L89.951416,198 L89.951416,186.021973 L97.8869629,186.021973 L97.8869629,188.088867 L92.458252,188.088867 L92.458252,190.977539 L97.579834,190.977539 L97.579834,192.90332 L92.458252,192.90332 L92.458252,195.924805 L97.8869629,195.924805 Z M107.441162,195.924805 L107.441162,198 L99.6965332,198 L99.6965332,186.021973 L102.203369,186.021973 L102.203369,195.924805 L107.441162,195.924805 Z M114.330811,185.814453 C117.875244,185.814453 120.108154,188.196777 120.108154,192.015137 C120.108154,195.825195 117.875244,198.20752 114.330811,198.20752 C110.778076,198.20752 108.553467,195.825195 108.553467,192.015137 C108.553467,188.196777 110.778076,185.814453 114.330811,185.814453 Z M114.330811,187.90625 C112.371826,187.90625 111.110107,189.5 111.110107,192.015137 C111.110107,194.521973 112.363525,196.107422 114.330811,196.107422 C116.289795,196.107422 117.543213,194.521973 117.543213,192.015137 C117.543213,189.5 116.289795,187.90625 114.330811,187.90625 Z M121.718506,186.021973 L126.715576,186.021973 C129.172607,186.021973 130.865967,187.657227 130.865967,190.122559 C130.865967,192.57959 129.114502,194.223145 126.591064,194.223145 L124.225342,194.223145 L124.225342,198 L121.718506,198 L121.718506,186.021973 Z M124.225342,188.005859 L124.225342,192.26416 L126.043213,192.26416 C127.479248,192.26416 128.317627,191.500488 128.317627,190.130859 C128.317627,188.769531 127.487549,188.005859 126.051514,188.005859 L124.225342,188.005859 Z M145.0271,186.021973 L145.0271,198 L142.794189,198 L142.794189,189.915039 L142.727783,189.915039 L139.473877,197.883789 L137.896729,197.883789 L134.642822,189.915039 L134.576416,189.915039 L134.576416,198 L132.343506,198 L132.343506,186.021973 L135.248779,186.021973 L138.6521,194.513672 L138.718506,194.513672 L142.121826,186.021973 L145.0271,186.021973 Z M154.954834,195.924805 L154.954834,198 L147.019287,198 L147.019287,186.021973 L154.954834,186.021973 L154.954834,188.088867 L149.526123,188.088867 L149.526123,190.977539 L154.647705,190.977539 L154.647705,192.90332 L149.526123,192.90332 L149.526123,195.924805 L154.954834,195.924805 Z M159.16333,198 L156.764404,198 L156.764404,186.021973 L158.856201,186.021973 L164.450928,193.824707 L164.517334,193.824707 L164.517334,186.021973 L166.91626,186.021973 L166.91626,198 L164.841064,198 L159.238037,190.155762 L159.16333,190.155762 L159.16333,198 Z M174.320557,198 L171.813721,198 L171.813721,188.088867 L168.310791,188.088867 L168.310791,186.021973 L177.831787,186.021973 L177.831787,188.088867 L174.320557,188.088867 L174.320557,198 Z M188.16626,198.20752 C184.679932,198.20752 182.496826,195.875 182.496826,192.006836 C182.496826,188.146973 184.696533,185.814453 188.16626,185.814453 C191.046631,185.814453 193.238037,187.640625 193.428955,190.321777 L190.988525,190.321777 C190.756104,188.852539 189.627197,187.889648 188.16626,187.889648 C186.273682,187.889648 185.053467,189.475098 185.053467,191.998535 C185.053467,194.555176 186.25708,196.132324 188.174561,196.132324 C189.6604,196.132324 190.731201,195.260742 190.996826,193.841309 L193.437256,193.841309 C193.155029,196.51416 191.104736,198.20752 188.16626,198.20752 Z M200.38501,185.814453 C203.929443,185.814453 206.162354,188.196777 206.162354,192.015137 C206.162354,195.825195 203.929443,198.20752 200.38501,198.20752 C196.832275,198.20752 194.607666,195.825195 194.607666,192.015137 C194.607666,188.196777 196.832275,185.814453 200.38501,185.814453 Z M200.38501,187.90625 C198.426025,187.90625 197.164307,189.5 197.164307,192.015137 C197.164307,194.521973 198.417725,196.107422 200.38501,196.107422 C202.343994,196.107422 203.597412,194.521973 203.597412,192.015137 C203.597412,189.5 202.343994,187.90625 200.38501,187.90625 Z M220.456299,186.021973 L220.456299,198 L218.223389,198 L218.223389,189.915039 L218.156982,189.915039 L214.903076,197.883789 L213.325928,197.883789 L210.072021,189.915039 L210.005615,189.915039 L210.005615,198 L207.772705,198 L207.772705,186.021973 L210.677979,186.021973 L214.081299,194.513672 L214.147705,194.513672 L217.551025,186.021973 L220.456299,186.021973 Z M222.448486,186.021973 L227.445557,186.021973 C229.902588,186.021973 231.595947,187.657227 231.595947,190.122559 C231.595947,192.57959 229.844482,194.223145 227.321045,194.223145 L224.955322,194.223145 L224.955322,198 L222.448486,198 L222.448486,186.021973 Z M224.955322,188.005859 L224.955322,192.26416 L226.773193,192.26416 C228.209229,192.26416 229.047607,191.500488 229.047607,190.130859 C229.047607,188.769531 228.217529,188.005859 226.781494,188.005859 L224.955322,188.005859 Z M240.917725,198 L240.004639,195.094727 L235.796143,195.094727 L234.883057,198 L232.309814,198 L236.468506,186.021973 L239.415283,186.021973 L243.582275,198 L240.917725,198 Z M237.871338,188.312988 L236.335693,193.21875 L239.465088,193.21875 L237.929443,188.312988 L237.871338,188.312988 Z M247.201416,198 L244.80249,198 L244.80249,186.021973 L246.894287,186.021973 L252.489014,193.824707 L252.55542,193.824707 L252.55542,186.021973 L254.954346,186.021973 L254.954346,198 L252.87915,198 L247.276123,190.155762 L247.201416,190.155762 L247.201416,198 Z M262.856689,198 L260.349854,198 L260.349854,193.525879 L256.182861,186.021973 L258.913818,186.021973 L261.594971,191.135254 L261.653076,191.135254 L264.342529,186.021973 L267.031982,186.021973 L262.856689,193.525879 L262.856689,198 Z" id="Top-Mobile-App-Devel" fill="#FFFFFF"></path>
    </g>
</svg>