<?xml version="1.0" encoding="UTF-8"?>
<svg width="22px" height="32px" viewBox="0 0 22 32" version="1.1" xmlns="http://www.w3.org/2000/svg" xmlns:xlink="http://www.w3.org/1999/xlink">
    <!-- Generator: Sketch 52.4 (67378) - http://www.bohemiancoding.com/sketch -->
    <title>icons/discover</title>
    <desc>Created with Sketch.</desc>
    <g id="services" stroke="none" stroke-width="1" fill="none" fill-rule="evenodd">
        <g id="design_sprints" transform="translate(-269.000000, -1404.000000)">
            <g id="2" transform="translate(250.000000, 1069.000000)">
                <g id="1" transform="translate(0.000000, 321.000000)">
                    <g id="Group">
                        <g id="icons/discover" transform="translate(14.000000, 14.000000)">
                            <g transform="translate(5.000000, 0.000000)" id="Path">
                                <path d="M15.9970188,24 L15.9970188,27.1988553 C16.0440648,28.4847526 15.5325608,29.7316305 14.5847675,30.6414578 C13.6369743,31.5512851 12.3380656,32.0422997 10.9985094,31.9971383 C8.27455973,31.9140654 6.08653936,29.8136911 6,27.1988553 L6,24 L15.9970188,24 Z" fill="#B1A0BD"></path>
                                <path d="M21.9995733,11.1952933 C22.0315835,14.8468218 20.2609093,18.2709647 17.2854704,20.3114607 L17.2854704,22.3905866 C17.3366661,22.8286663 17.1876498,23.2664476 16.8811508,23.5784003 C16.5746518,23.890353 16.1445239,24.0420208 15.7141028,23.9899142 L6.28589717,23.9899142 C5.4180548,23.9899142 4.71452956,23.2738708 4.71452956,22.3905866 L4.71452956,20.3114607 C1.73909068,18.2709647 -0.0315834894,14.8468218 0.000426722667,11.1952933 C0.000426722667,5.01230353 4.92510342,2.75857768e-15 11,2.75857768e-15 C17.0748966,2.75857768e-15 21.9995733,5.01230353 21.9995733,11.1952933 Z" fill="#3B1159"></path>
                            </g>
                        </g>
                    </g>
                </g>
            </g>
        </g>
    </g>
</svg>