<?xml version="1.0" encoding="UTF-8"?>
<svg width="32px" height="32px" viewBox="0 0 32 32" version="1.1" xmlns="http://www.w3.org/2000/svg" xmlns:xlink="http://www.w3.org/1999/xlink">
    <!-- Generator: Sketch 52.4 (67378) - http://www.bohemiancoding.com/sketch -->
    <title>icons/ideate</title>
    <desc>Created with Sketch.</desc>
    <g id="services" stroke="none" stroke-width="1" fill="none" fill-rule="evenodd">
        <g id="design_sprints" transform="translate(-744.000000, -1404.000000)">
            <g id="2" transform="translate(250.000000, 1069.000000)">
                <g transform="translate(480.000000, 321.000000)" id="icons/ideate">
                    <g transform="translate(14.000000, 14.000000)">
                        <g>
                            <path d="M32.0004604,14.4028628 C31.990135,12.9755267 31.3451054,11.6268286 30.2404604,10.7228628 C30.3717055,10.3648706 30.4262179,9.98328393 30.4004604,9.60286277 C30.445638,8.31650536 29.9544477,7.06918118 29.0442948,6.15902834 C28.134142,5.24887549 26.8868178,4.75768518 25.6004604,4.80286277 C25.6004604,2.15189597 23.4514272,0.00286276879 20.8004604,0.00286276879 C18.1494936,0.00286276879 16.0004604,2.15189597 16.0004604,4.80286277 C16.045638,3.51650536 15.5544477,2.26918118 14.6442948,1.35902834 C13.734142,0.448875492 12.4868178,-0.0423148176 11.2004604,0.00286276879 C9.914103,-0.0423148176 8.66677882,0.448875492 7.75662598,1.35902834 C6.84647313,2.26918118 6.35528282,3.51650536 6.40046041,4.80286277 C5.114103,4.75768518 3.86677882,5.24887549 2.95662598,6.15902834 C2.04647313,7.06918118 1.55528282,8.31650536 1.60046041,9.60286277 C1.5747029,9.98328393 1.62921527,10.3648706 1.76046041,10.7228628 C0.655815373,11.6268286 0.0107858334,12.9755267 0.000460409364,14.4028628 C-0.0166571944,15.5975389 0.444150352,16.7495577 1.28046041,17.6028628 C0.456758962,18.77491 0.0102171141,20.1703532 0.000460409364,21.6028628 C-0.00798459899,25.399162 2.93259676,28.5497849 6.72046041,28.8028628 C7.39288085,30.7050442 9.18301733,31.9837131 11.2004604,32.0028628 C12.4868178,32.0480404 13.734142,31.55685 14.6442948,30.6466972 C15.5544477,29.7365444 16.045638,28.4892202 16.0004604,27.2028628 C15.9552828,28.4892202 16.4464731,29.7365444 17.356626,30.6466972 C18.2667788,31.55685 19.514103,32.0480404 20.8004604,32.0028628 C22.8179035,31.9837131 24.60804,30.7050442 25.2804604,28.8028628 C29.0683241,28.5497849 32.0089054,25.399162 32.0004604,21.6028628 C31.9907037,20.1703532 31.5441619,18.77491 30.7204604,17.6028628 C31.5567705,16.7495577 32.017578,15.5975389 32.0004604,14.4028628 Z M17.6004604,22.4028628 C17.6004604,23.2865184 16.884116,24.0028628 16.0004604,24.0028628 C15.1168048,24.0028628 14.4004604,23.2865184 14.4004604,22.4028628 L14.4004604,9.60286277 C14.4004604,8.71920717 15.1168048,8.00286277 16.0004604,8.00286277 C16.884116,8.00286277 17.6004604,8.71920717 17.6004604,9.60286277 L17.6004604,22.4028628 Z" id="Shape" fill="#3B1159"></path>
                            <rect id="Rectangle" fill="#B1A0BD" x="14.4004604" y="8.00286277" width="3.2" height="16" rx="1.2"></rect>
                        </g>
                    </g>
                </g>
            </g>
        </g>
    </g>
</svg>