<svg xmlns="http://www.w3.org/2000/svg" viewBox="0 0 697 559"><path fill="url(#a)" d="M337.221 14.293c17.835-17.835 46.83-17.756 64.762.176L683.384 295.87c17.93 17.93 18.011 46.928.177 64.762l-46.133 46.133c-17.835 17.835-46.832 17.753-64.762-.177L291.265 125.187c-17.932-17.932-18.011-46.927-.177-64.762l46.133-46.132ZM198.823 152.69c17.835-17.835 46.83-17.756 64.762.176l281.401 281.401c17.93 17.93 18.012 46.927.177 64.762l-46.133 46.133c-17.835 17.835-46.832 17.754-64.762-.177L152.867 263.585c-17.932-17.932-18.011-46.927-.176-64.762l46.132-46.132Zm-73.635 138.573c-17.932-17.932-46.927-18.011-64.764-.175l-46.13 46.131c-17.836 17.836-17.756 46.83.176 64.762l129.877 129.877c17.933 17.933 46.927 18.013 64.762.177l46.131-46.131c17.836-17.836 17.757-46.831-.175-64.764L125.188 291.264Z"/><defs><linearGradient id="a" x1="170.967" x2="788.435" y1="173.403" y2="736.35" gradientUnits="userSpaceOnUse"><stop stop-color="#1F323C"/><stop offset="1" stop-color="#152A33"/></linearGradient></defs></svg>